<?xml version="1.0" encoding="UTF-8"?>
<svg id="_レイヤー_2" xmlns="http://www.w3.org/2000/svg" version="1.1" viewBox="0 0 200 300">
  <!-- Generator: Adobe Illustrator 30.0.0, SVG Export Plug-In . SVG Version: 2.1.1 Build 123)  -->
  <defs>
    <style>
      .st0 {
        fill: #a8000b;
      }

      .st1 {
        fill: #f9282f;
      }

      .st2 {
        fill: #41871b;
      }

      .st3 {
        fill: #174914;
      }

      .st4 {
        fill: #79000b;
      }

      .st5 {
        fill: #d50514;
      }

      .st6 {
        fill: #2d6b16;
      }
    </style>
  </defs>
  <g id="_レイヤー_1-2">
    <path class="st3" d="M54,142.9l-5.7,7.4,36.3,2.2-4.4,13.1,21.9-14-7.4,11.8,9.6,9.2,5.3,112.5h0c.9,2.7,4.9,2,4.8-.9l-1.3-27.1,27.1-39.4,28.5,3.1-25.8-5.7,12.7-10.1,24.1,3.1-21.5-4.8,25.8-11.4-11.8,2.6,2.2-9.6-14.9,15.3,3.5-14-14.4,20.6,2.2-15.8-14,26.3-.4-19.7-1.8,21.5-22.3,26.3-3.5-76.6,7.4-17.5,11.8-2.6,9.6,12.7,1.3-13.6-84.9-4.8Z"/>
    <path class="st5" d="M152.5,111.4l-7,.4-18.8,7.9-21,.9-24.5,10.1-1.8,2.6.4,4.8,8.3,5.7,10.1,3.1,16.2.4,7.9-1.8,14.4-15.3,5.3-14.9,6.1.4,1.3,1.8,2.6-2.6.4-3.5Z"/>
    <path class="st6" d="M193.7,189.8l-18.8-2.6-2.2,7,15.3-3.1-27.6,12.7,19.3,4.8-23.6-2.6-11.8,8.8,25.4,6.1-26.7.4.9,3.5,13.1,7-20.1-9.2-7.4,8.8,15.3,5.3,21.9-3.5,19.7-19.7-2.2-2.2,6.1-7.9-2.2-1.8,5.7-11.8Z"/>
    <path class="st2" d="M104,159.6l-5.1,7,5,116.7,2.2,2.8c3,.7,3.9,1.8,3.9-.3l-6-126.3h0Z"/>
    <path class="st1" d="M13.3,54.1l-2.6,4.8.4,6.1,13.6,17.1,15.8,9.6,27.1,9.6,24.1,16.6-13.1-15.3-28.5-17.9-23.6-19.3,10.1.9-4.8-8.8-.4-11.4-10.1,2.2-7.9,5.7Z"/>
    <path class="st1" d="M178.8,74.6l-5.7-5.3h-7.9l-4.8,15.8-7.4,7.4-55.2,23.6-15.8,13.6,15.3-7.4,28.5-7.9,10.5-7,19.7-3.9,23.6-17.1-.9-11.8Z"/>
    <path class="st1" d="M33,44.9l1.8,10.9,11.4,19.3,18.4,15.8-8.3-15.3,32,15.8,27.6-5.7-62.2-13.6-5.7-14.9,2.2-25-10.5,4.4-6.6,8.3Z"/>
    <path class="st2" d="M5,186.7l21.9,25,13.6,6.6,7,.4,20.1-13.1-12.3-6.6-12.7,7.9-13.1,3.5,25-12.3-15.8-5.3-19.7,6.6,17.5-7.9-19.7-4.4,13.1.9-3.5-8.8,2.6,1.8,7-3.5-31.1,9.2Z"/>
    <path class="st1" d="M17.7,110.1l-1.8,4.4,1.3,4.8,10.5,10.9,10.9,6.1,28,9.2,12.7.9,9.2-1.8-28.5-13.1-16.2-16.2-6.1-3.9-8.3-2.2-11.8.9Z"/>
    <path class="st0" d="M177.5,56.7l-8.3-.4,1.8,11.4,8.3,6.1,2.2,10.5-4.4,13.1-17.1,33.3,18.8-12.3,9.2-9.6,6.6-10.9.4-7.9-5.3-7.4,3.1-8.8-.4-6.6-6.6-7-8.3-3.5Z"/>
    <path class="st0" d="M85.1,30l9.2,3.5,13.6-5.3,16.2,3.1,10.1,7.9,3.1,9.6-.9,4.8,6.1-3.5,4.4,8.8h6.1l-.4-9.6-3.5-6.6-7.9-7-9.2-3.9,7.9-3.1-16.2-10.9-14.9-1.3-23.6,13.6Z"/>
    <path class="st5" d="M44.8,101.8l3.1,11.8,4.8,9.2,7.9,7,7.4,4.4,8.3-8.3,9.6-5.3,4.8-1.3-7.4-5.7-13.1-6.1-14-4.4-11.4-1.3Z"/>
    <path class="st0" d="M164.4,99.6l-11.4,6.6-16.6,2.6-12.3,7.4-17.9,4.4,18.4-.9,16.6-7,11.4-1.8v3.9l-3.1,3.1-7-2.6-5.3,14.9-13.1,14,14.4-2.6,8.8-4.4-.9-1.8,7-3.5,4.8-6.6,6.1-25.8Z"/>
    <path class="st6" d="M174,185.4l-7,1.3-3.5-2.2-4.4,2.2-2.6-1.8-9.6,5.7-3.1-1.8-7.4,7.9-1.8-1.8-7,8.3-3.5,8.8,1.8,14.4,8.3-7.4,2.2-21.9.4,19.7,8.3-7.9,2.2-12.7,3.5-5.7-2.2,15.8,8.3-5.3,6.1-15.3-2.6,14,9.2-5.7,4.4-8.8Z"/>
    <path class="st5" d="M65,88.2l2.6,5.7,17.9,13.1,13.1,6.1,27.6-11.8-1.3-3.9-7-5.3-18.4,3.9h-7.9l-10.5-2.6-14.9-6.6-1.3,1.3Z"/>
    <path class="st1" d="M132.8,31.3l10.9,5.3,6.6,6.6,3.5,7.4v10.5l1.3-1.3.9-8.3h1.3l1.8,20.6,9.6-14.4.4-8.8-2.6-7.9-7-7-6.6-3.1-9.6-1.3-10.5,1.8Z"/>
    <path class="st1" d="M96.1,22.1l-7.4-3.9-12.7-1.8-8.8,2.2-8.8,5.3-4.8,5.7-3.1,7-.9,4.8.9,13.6,3.9-12.7,8.8-9.2,10.5-3.9,9.6,1.3,12.7-8.3Z"/>
    <path class="st4" d="M169.6,57.1l-10.5,15.8-2.6,12.7-7,7-5.7-1.3,7-21-26.7,15.8,14.9,5.3,2.2,2.6-40.7,20.1-17.1-7.4,10.1,11.8,56.5-24.5,10.9-10.5,3.5-14,6.1-1.3-.9-10.9Z"/>
    <path class="st6" d="M29.5,179.7l5.7,8.3,13.1,4.4-6.6-11.4,1.8-.4,9.6,13.6,7.4,3.1-5.3-13.1,1.3-.9,9.2,16.2,10.5,7.4-4.8-14.9-6.6-3.5-.4-3.9-3.1-3.5-14.9-3.5-3.5,1.8-5.7-2.2-.9,2.2-7,.4Z"/>
    <path class="st0" d="M58,77.3l6.1,10.9,2.2-1.8,20.1,8.3,13.1.9,18.4-3.9,7.4,5.7,1.3,3.5,13.6-7-7.9-5.3-14-2.6-19.3,5.7h-13.6l-14.4-9.2-13.1-5.3Z"/>
    <path class="st5" d="M24.7,83.4l-4.8,1.8-4.8,3.1-5.3,5.7-1.3,3.5v3.5l1.3,3.1,4.4,3.5,4.4,1.8,3.5-.9,2.2.4,2.6-1.8,4.4-1.3h3.1l-5.7-11.8-2.6-9.2-1.3-1.3Z"/>
    <path class="st0" d="M60.6,58.4l2.2,10.9,3.1,3.9,50.3,11.4,24.5-13.1v-5.7l-2.6-2.6-12.3,11.8-11.8,3.9-13.6,1.3-14.9-5.7-25-16.2Z"/>
    <path class="st2" d="M73.7,231.4l-10.5,6.1-3.9,13.1-.9-1.3,2.6-10.1-14.4,11.4,10.5-11.4-.4-1.3,3.5-1.3-8.8-3.1-3.9,7.4-3.1,11.8,12.7-.4,3.1,1.3,9.2-3.9,3.5-10.1.9-8.3Z"/>
    <path class="st3" d="M94.3,227.4l-3.9-5.3-11.8-4.8-13.1.9.9,2.6,13.6,4.4-4.8,2.6-10.5-2.6,7.4,3.9-9.6,5.7-13.1,13.6,10.9-9.6v8.8l3.5-11.4,10.1-5.7.9,2.6,2.6-4.4,4.4-1.8,1.3,10.1-2.2,11.4,8.8-9.2,1.3-7.4-1.8-5.7,2.6-.9,2.6,2.2Z"/>
    <path class="st4" d="M26,83l3.9,12.7,7,12.3-.9,1.3h-2.6l7.9,3.5,14.9,15.3,10.1,5.7-11.8-8.3-4.8-6.6-4.8-13.6-1.3-11.4-17.5-10.9Z"/>
    <path class="st1" d="M64.1,37.4l-5.3,9.2-.4,6.6,1.3,2.6,7,6.1,16.2,10.5,17.5,7-18.8-11.8-8.3-7.9-5.7-10.5-.4-13.1-3.1,1.3Z"/>
    <path class="st5" d="M126.7,44.9l-4.4-2.2,1.8,4.4-.4,4.4-1.3,3.1-2.2,1.8v1.8l-5.3,5.3-8.8,3.9-7,2.2-6.6.4v.9l12.3,5.7,3.1-.4,7.4-3.9,7-7,3.9-7,1.3-6.1-.9-7Z"/>
    <path class="st1" d="M86.9,41.4l.9,1.3,4.8-3.9,9.2-3.1,8.3,2.2,9.6-1.3,6.1,2.6,7,8.3,1.3,6.1,1.8-1.3-.4-7.9-2.2-4.8-7.4-6.1-10.5-3.9-6.1-.4-10.9,3.1-4.8,2.6-6.6,6.6Z"/>
    <path class="st4" d="M179.2,88.2l-14.9,10.5-.4,9.6-4.8,16.2-5.7,7.9-6.1,2.6-.4,1.3,7.9-1.3,5.3-3.5-.4-3.1,17.1-31.1,2.6-9.2Z"/>
    <path class="st4" d="M107,45.7l-5.3.4-3.1,1.8-3.1,3.5-1.8,4.4v2.2l10.1,5.7,7-3.1,5.7-3.5-.4-3.5-1.8-3.5-2.6-2.6-4.8-1.8Z"/>
    <path class="st2" d="M101.8,152.1l-8.8-2.6-6.1,6.6-7.9,13.1-.4-1.3,1.8-4.4-1.3,1.3h-2.6l-.9-2.2-2.6-1.8,2.2,14,9.6-5.3,8.3-6.1.9,1.3v-1.8l5.3-5.3,2.6-5.7Z"/>
    <path class="st1" d="M141.2,51.9l-3.1,1.8-3.9,4.8-10.1,9.2-20.1,11.4h5.3l11.8-2.6,7.9-3.9,7.9-7.9,4.4-12.7Z"/>
    <path class="st6" d="M79.4,224.8l-6.1-2.6-7-.9-.9-2.2h-.9l-3.1,2.2h-1.3v.9l-3.9,3.1-1.8.4.9.9-.4,1.8-3.5,3.1v1.8l9.2,3.1,10.9-7-6.6-3.1-.4-1.3,8.8,2.6h1.8l4.4-2.6Z"/>
    <path class="st4" d="M67.6,36.1l-.4,7.9,2.6,9.2,4.8,7.4,6.1,5.3-2.2-3.1.9-9.2-1.3-2.2v-7l2.2-3.9.4-3.1h-1.8l-3.9,2.2-4.8,4.4-.4-4.8,1.3-1.8-1.3.4-2.2-1.8Z"/>
    <path class="st4" d="M48.3,47.5v7.9l.9,1.3v3.9l4.4,10.9,10.5,1.3-2.6-6.6-1.3-6.6.4-2.2-2.6-4.4-1.8-1.3-2.2,1.3-2.2-.4v4.8l-.9.4-.9-3.1-.9-.4.4-2.2-.9-.4.4-2.6-.9-1.8Z"/>
    <path class="st2" d="M115.8,152.1l.9,2.6,18.4,10.1,7.4,7,.9-.4.4-9.6-.9-1.3.9-1.3-.9-2.2-.4,3.9.9,3.1-1.8,3.1h-1.8l-3.9-7.9-7.9-10.1-12.3,3.1Z"/>
    <path class="st0" d="M156.9,53.2l-.9,7.9,1.3.9v2.2l-1.8,3.1-2.2-.4-1.8,2.2-1.8,10.9-4.8,10.1-.4,2.6h3.1l4.8-3.1,3.5-4.8,1.8-4.4.4-14-.9-1.8.4-5.7-.9-.4v-5.3Z"/>
    <path class="st0" d="M79.4,54.1l-.4,8.8,4.8,5.7,17.9,10.5,3.5-1.8-10.9-4.8-2.6-2.6-3.5-.9,2.2-1.8,9.6-2.2,1.3-1.3-3.1.4-12.7-4.8-6.1-5.3Z"/>
    <path class="st6" d="M82.1,227.4l-4.8,1.8-.9.9v1.3l-1.3.9-.9,2.2v4.8l-.9.9-1.8,7.9-1.8,2.2v1.8l.9.4,1.3-1.3,3.5-1.3,1.3-1.8,3.5-2.2.9-1.8,1.3-7-.4-9.6Z"/>
    <path class="st5" d="M156.9,61.9l-1.3-1.3-.9,2.6v-3.1l-12.3,11.4-25.4,14,6.1.4,14.9-7,10.1-7,4.8-5.7,2.6.4,1.3-4.8Z"/>
    <path class="st3" d="M21.2,187.6l36.3,10.9,29.8,21-3.5-3.5,1.8-1.3-6.6-5.7,5.7,2.6-19.7-11.4-7.4-14.4,4.4,13.1-9.6-4.4-7.4-10.9,4.4,9.6-13.6-3.9-7.4-8.8,4.8,7.9-11.8-.9Z"/>
    <path class="st0" d="M44,94.3l1.3,7,14.4,2.2,20.6,7.9-3.5-3.5-12.7-7.4-12.7-4.8-7.4-1.3Z"/>
    <path class="st4" d="M32.1,47.1l-.4,5.7,1.3,7,7,10.9,1.3,6.1,7.9,6.6,19.3,11.8-3.1-3.5-10.1-6.1-9.2-9.6-13.6-23.2-.4-5.7Z"/>
    <path class="st6" d="M72.4,209l-3.9-3.5-.9,1.3-10.9,7.4-10.5,5.3h7.9l1.3-.9,1.3.4,4.8-1.8,1.8,1.3,2.2-1.3h2.2v-1.3l-1.8-.4,6.6-6.6Z"/>
    <path class="st0" d="M80.3,30.9l-8.8-.4-6.6,2.6-4.4,3.1-6.1,7.9-2.6,8.3,2.2.4,1.3-1.3,1.8.4,1.3-7.4,2.2-4.4,3.5-3.5,3.5-1.8,2.6,2.6,2.6-2.2,7.4-3.5v-.9Z"/>
    <path class="st4" d="M127.6,41.4l-1.8.9,2.2,4.8-.4,8.3-2.6,6.6-3.1,4.4-3.9,3.9,6.6-3.5,9.2-8.8v-5.3l-1.3-4.8-4.8-6.6Z"/>
    <path class="st4" d="M107.9,40l-.9-.9-2.6.4-1.3-.9h-3.9l-.4-1.8-3.1.9-5.3,3.1-4.8,5.3-1.3,3.5,3.1,3.5,3.1,2.2v-4.8l1.3-2.6,4.8-4.8,3.5-1.8,7.9-1.3Z"/>
    <path class="st2" d="M72,151.7l-4.4-1.8h-4.8l-13.1,6.1-7.4,1.8-1.3,1.3h6.6l8.8-1.3,3.1-1.3,4.8-.9,7.9-3.9Z"/>
    <path class="st1" d="M79,43.6l-.4,7,.9,2.2,3.5,3.5,10.5,5.7,8.8,1.3-6.6-3.5-7-4.8-6.1-6.6-2.6-5.3-.9.4Z"/>
    <path class="st3" d="M146,139l.4,1.3,3.5,2.6,17.1-1.3-3.1-2.6-9.2-3.5-4.4.9-4.4,2.6Z"/>
    <path class="st5" d="M94.3,33.9l-4.4-2.2-7.9-.4-8.8,4.8-2.6,2.6-.4,4.4,4.4-3.9,3.9-2.2,4.8-1.8h5.3l3.1.9,2.6-2.2Z"/>
    <path class="st0" d="M87.3,121.9l-.9-.4-.4.9-.4-.4-.4.9-.4-.4-8.3,4.8-4.4,4.4v4.4l9.2,4.4-2.6-3.9.4-5.7,2.2-1.8,1.3-2.6,3.1-2.2,1.8-2.2Z"/>
    <path class="st1" d="M121.9,53.6l-4.8,3.9-10.1,5.7-17.9,5.7,3.1.4,7-.9,11.4-3.5,4.4-2.2,4.8-4.8-.4-.9,2.6-2.6v-.9Z"/>
    <path class="st6" d="M135.5,143.8l3.5,3.5,2.6.4v-1.8l1.3.9,10.1-.4-.9-.4.9-1.8,1.8-.4h-4.8l-2.2-2.6-1.8-.9-.4-1.3-3.9,1.3-6.1,3.5Z"/>
    <path class="st6" d="M83.8,153.4h-3.9l-3.5,1.3-3.1-.9v6.6l.9,1.3,1.8.9.4,1.8h2.6l1.3-1.8,3.5-9.2Z"/>
    <path class="st6" d="M79.4,209l2.6,2.2,1.8,2.6h1.3l.9.9-1.8,1.3,5.3,5.7h.9l2.2,2.2v1.3l7.9,9.2-.9-6.6-.9-.4-.9-2.2-10.9-10.9h-.9l-1.3-1.8-4.4-3.5h-.9Z"/>
    <path class="st4" d="M109.6,38.3l-.9,2.6h1.3l3.5,1.8,4.4,5.3,1.3,7.4,3.1-3.1,1.3-3.1-2.2-6.6-6.1-.9-1.8-1.8-2.2.4-.9-1.3.9-.9h-1.8Z"/>
    <path class="st4" d="M144.2,55.4l-2.6,15.3h.9l5.3-3.9,4.8-5.3v-1.8l-.9.4-1.3-.9h-3.5l-2.6-3.9Z"/>
    <path class="st6" d="M139,149.1v1.3l-.9.9-3.1,1.3,4.8,10.9v3.1h1.8l1.3-2.6-.9-3.1v-6.6l-.9-.9-.9-3.1-1.3-1.3Z"/>
    <path class="st5" d="M107,41.4l-7.9,1.3-3.5,1.8-3.9,4.4-.9,2.2.4,4.4.9.9.9-.4,2.6-5.3,5.7-5.7h.9l-.9-1.3.9-.9,4.8-1.3Z"/>
    <path class="st6" d="M58.4,150.8l-3.1-.4-1.8-1.8-2.6-.4-3.1,3.1-1.3,2.6-3.1,1.8-.4,1.8,2.6-.4,7.4-3.1,5.3-3.1Z"/>
    <path class="st1" d="M101.3,45.3h7l3.9,1.8,1.8,1.8,2.6-1.3-3.5-4.4-3.9-1.8-3.5.4-.4.9h-2.2l-1.3.9.9,1.3-1.3.4Z"/>
    <path class="st0" d="M89.9,36.5l-6.1-.4-3.1,1.8.4,1.3-.9,3.1,1.3,3.1,1.3,1.3,2.6-5.3,4.4-4.8Z"/>
    <path class="st0" d="M110.9,39.2l.4.9,2.2-.4,1.8,1.8,4.4.9,1.8-.4,3.9.9.4-.9h.9l-2.6-2.6-4.8-1.8-5.3.4-3.1,1.3Z"/>
    <path class="st5" d="M142.5,51.4l-1.8,2.2-1.3,7.4-.9,1.8,2.6,3.1v1.3l2.2-7.9v-5.3l-.9-2.6Z"/>
    <path class="st2" d="M152.5,146l2.2.9.9-.9,3.1-.4h13.6l-2.2-1.8-2.6-.9h-5.7l-2.6,1.3-3.9-.9-.4.9h-1.3l-.9,1.8Z"/>
    <path class="st0" d="M29.5,65.9l10.5,9.2.4-.4-.9-3.9-2.2-3.1-3.5-1.3-1.3.4-.9-.9h-2.2Z"/>
    <path class="st2" d="M57.5,178.4l1.8,1.8-.4.4h2.6l.4,1.8,3.1,2.2.4,3.9h.9l.4.9h1.8l1.8,2.2h1.8l-.9-.4-.4-1.8-2.6-3.5-4.8-4.8-2.2-.9-1.8-1.8h-1.8Z"/>
    <path class="st6" d="M55.3,198.5l-.4-.4-1.3,1.3-3.9,1.3-10.1,5.3-7,2.2-3.1,1.8,8.3-1.8,4.8-1.8,6.1-4.4,1.8-.4.9-1.3,3.1-.9.9-.9Z"/>
    <path class="st2" d="M136.8,221.7l6.6,3.1-1.3-1.8v-1.3l.9-.9h2.6v-.9l.9-.4-.4-.9-3.1.4-2.2-.9-3.9,3.5Z"/>
    <path class="st5" d="M102.6,50.1v1.3l3.1,1.3,2.2,5.7h.9v-4.8l-.9-1.3-2.6-1.8-.9.4-1.8-.9Z"/>
    <path class="st2" d="M37.4,176.6l3.9.9,1.8,1.3h2.2l-1.3-1.3.4-.4,5.3.4,1.8,1.8.9-.9,1.8,1.3,1.8-.9-6.6-2.2h-4.4l-.9.9-3.5-.4-.9-.9-2.2.4Z"/>
    <path class="st0" d="M36.5,107.9l-.9-1.3-2.2-.4-4.8,1.8-1.8-.4-1.3.9,10.5.4.4-.9Z"/>
    <path class="st0" d="M99.1,37.4v.9h3.9l1.3.9,2.6-.4,1.3,1.3-.4.4,1.3-.9-.4-1.3-2.6-1.3-7,.4Z"/>
    <path class="st5" d="M115.8,47.9l-.9,1.8,1.8,2.6.4,3.1h.9l.4-3.9-1.8-3.5h-.9Z"/>
    <path class="st4" d="M75,128l-3.5,3.1-3.1,3.9,3.5,1.3-.9-2.2.9-1.3-.4-1.3,3.5-3.5Z"/>
    <path class="st4" d="M90.4,120.6h-2.6l-.9.9.9.4-2.2,2.6-2.6,1.8-1.3,2.6-2.2,1.8v1.3l3.5-4.8,7.4-6.6Z"/>
    <path class="st6" d="M168.7,142.9l-1.3-1.3-1.3.9-4.8-.4-4.8,1.3,2.6.4,2.6-1.3,7,.4Z"/>
  </g>
</svg>